<svg width="391" height="515" viewBox="0 0 391 515" fill="none" xmlns="http://www.w3.org/2000/svg">
<rect x="2.99998" y="3" width="385" height="377" rx="7" stroke="black" stroke-width="6" stroke-linecap="round" stroke-linejoin="round" stroke-dasharray="2 2"/>
<mask id="mask0" mask-type="alpha" maskUnits="userSpaceOnUse" x="72" y="55" width="262" height="283">
<rect x="134.907" y="55.3041" width="83.4352" height="236.122" transform="rotate(15.4058 134.907 55.3041)" fill="black"/>
<rect x="233.103" y="82.3626" width="104.276" height="235.401" transform="rotate(15.4058 233.103 82.3626)" fill="black"/>
</mask>
<g mask="url(#mask0)">
<path d="M195.979 298.728C182.347 298.728 171.115 296.232 162.283 291.24C153.451 286.248 146.923 280.104 142.699 272.808C138.475 265.512 136.363 258.312 136.363 251.208C136.363 247.176 137.035 244.488 138.379 243.144C139.723 241.8 141.931 241.128 145.003 241.128C148.843 241.128 151.435 241.896 152.779 243.432C154.123 244.968 154.795 246.888 154.795 249.192C154.795 253.416 155.947 258.024 158.251 263.016C160.747 267.816 164.971 272.04 170.923 275.688C176.875 279.336 185.035 281.16 195.403 281.16C208.843 281.16 219.115 277.704 226.219 270.792C233.515 263.688 237.163 252.744 237.163 237.96V232.488C237.163 219.24 233.419 209.544 225.931 203.4C218.443 197.256 208.459 194.184 195.979 194.184C193.483 194.184 191.659 193.416 190.507 191.88C189.355 190.152 188.779 188.232 188.779 186.12C188.779 184.008 189.259 182.088 190.219 180.36C191.371 178.632 193.291 177.768 195.979 177.768C207.499 177.768 216.331 175.176 222.475 169.992C228.811 164.808 231.979 155.112 231.979 140.904C231.979 128.424 229.099 119.112 223.339 112.968C217.771 106.824 209.035 103.752 197.131 103.752C186.955 103.752 179.179 105.48 173.803 108.936C168.619 112.392 164.971 116.52 162.859 121.32C160.939 126.12 159.979 130.536 159.979 134.568C159.979 140.712 157.003 143.784 151.051 143.784C147.211 143.784 144.619 143.016 143.275 141.48C141.931 139.944 141.259 137.064 141.259 132.84C141.259 128.808 142.027 124.2 143.563 119.016C145.291 113.832 148.171 108.744 152.203 103.752C156.235 98.76 161.899 94.632 169.195 91.368C176.683 88.104 186.187 86.472 197.707 86.472C208.075 86.472 217.195 88.104 225.067 91.368C232.939 94.632 239.083 100.008 243.499 107.496C248.107 114.792 250.411 124.68 250.411 137.16C250.411 150.216 248.107 160.776 243.499 168.84C238.891 176.904 233.323 182.568 226.795 185.832C235.243 189.288 242.251 194.76 247.819 202.248C253.387 209.736 256.171 219.816 256.171 232.488V237.96C256.171 252.744 253.387 264.552 247.819 273.384C242.443 282.216 235.243 288.648 226.219 292.68C217.195 296.712 207.115 298.728 195.979 298.728Z" fill="black"/>
<path d="M195.576 299.73C184.44 299.73 174.264 297.81 165.048 293.97C156.024 289.938 148.824 283.602 143.448 274.962C138.264 266.13 135.672 254.61 135.672 240.402V236.946C135.672 222.162 138.552 210.45 144.312 201.81C150.072 193.17 157.656 186.93 167.064 183.09C159.384 180.018 153.144 174.834 148.344 167.538C143.736 160.05 141.432 150.162 141.432 137.874C141.432 125.202 143.736 115.218 148.344 107.922C153.144 100.626 159.576 95.4422 167.64 92.3702C175.896 89.1062 185.208 87.4742 195.576 87.4742C205.944 87.4742 215.16 89.1062 223.224 92.3702C231.48 95.4422 237.912 100.626 242.52 107.922C247.32 115.218 249.72 125.202 249.72 137.874C249.72 150.162 247.32 160.05 242.52 167.538C237.912 174.834 231.864 180.018 224.376 183.09C233.592 186.93 241.08 193.17 246.84 201.81C252.6 210.45 255.48 222.162 255.48 236.946V240.402C255.48 254.61 252.792 266.13 247.416 274.962C242.232 283.602 235.128 289.938 226.104 293.97C217.08 297.81 206.904 299.73 195.576 299.73ZM195.864 283.026C208.536 283.026 218.424 279.378 225.528 272.082C232.824 264.786 236.472 253.746 236.472 238.962V234.93C236.472 220.146 232.824 209.298 225.528 202.386C218.232 195.474 208.248 192.018 195.576 192.018C182.904 192.018 172.824 195.474 165.336 202.386C158.04 209.298 154.392 220.146 154.392 234.93V238.962C154.392 253.938 158.04 265.074 165.336 272.37C172.824 279.474 183 283.026 195.864 283.026ZM195.576 175.026C206.712 175.026 215.448 172.242 221.784 166.674C228.12 161.106 231.288 151.986 231.288 139.314C231.288 126.834 228.12 117.906 221.784 112.53C215.448 106.962 206.712 104.178 195.576 104.178C184.44 104.178 175.704 106.962 169.368 112.53C163.032 117.906 159.864 126.834 159.864 139.314C159.864 151.986 163.032 161.106 169.368 166.674C175.704 172.242 184.44 175.026 195.576 175.026Z" fill="black"/>
</g>
<path d="M27.784 500C27.3147 500 26.8667 499.872 26.44 499.616C26.056 499.317 25.864 498.912 25.864 498.4V454.816C25.864 454.304 26.056 453.92 26.44 453.664C26.8667 453.365 27.3147 453.216 27.784 453.216H50.568C51.1227 453.216 51.528 453.429 51.784 453.856C52.04 454.24 52.168 454.645 52.168 455.072C52.168 455.627 52.0187 456.117 51.72 456.544C51.464 456.928 51.08 457.12 50.568 457.12H30.088V474.72H40.136C40.648 474.72 41.032 474.912 41.288 475.296C41.5867 475.68 41.736 476.128 41.736 476.64C41.736 477.067 41.608 477.472 41.352 477.856C41.096 478.197 40.6907 478.368 40.136 478.368H30.088V496.096H50.568C51.08 496.096 51.464 496.309 51.72 496.736C52.0187 497.12 52.168 497.589 52.168 498.144C52.168 498.571 52.04 498.997 51.784 499.424C51.528 499.808 51.1227 500 50.568 500H27.784ZM60.476 500C59.9213 500 59.4307 499.872 59.004 499.616C58.5773 499.317 58.364 498.912 58.364 498.4V454.752C58.364 454.24 58.5773 453.856 59.004 453.6C59.4307 453.344 59.9213 453.216 60.476 453.216C60.988 453.216 61.4573 453.344 61.884 453.6C62.3533 453.856 62.588 454.24 62.588 454.752V498.4C62.588 498.912 62.3533 499.317 61.884 499.616C61.4573 499.872 60.988 500 60.476 500ZM85.1015 500.384C82.6268 500.384 80.3868 499.936 78.3815 499.04C76.3762 498.144 74.7762 496.693 73.5815 494.688C72.4295 492.683 71.8535 490.016 71.8535 486.688V466.848C71.8535 463.563 72.4295 460.917 73.5815 458.912C74.7762 456.907 76.3548 455.456 78.3175 454.56C80.3228 453.664 82.5628 453.216 85.0375 453.216C87.7682 453.216 90.1362 453.707 92.1415 454.688C94.1468 455.627 95.7042 456.928 96.8135 458.592C97.9228 460.256 98.4775 462.155 98.4775 464.288C98.4775 465.141 98.2855 465.717 97.9015 466.016C97.5175 466.315 97.0055 466.464 96.3655 466.464C95.8108 466.464 95.3202 466.336 94.8935 466.08C94.4668 465.824 94.2535 465.419 94.2535 464.864C93.9548 462.389 93.0588 460.491 91.5655 459.168C90.0722 457.803 87.9175 457.12 85.1015 457.12C82.2428 457.12 80.0028 457.909 78.3815 459.488C76.8028 461.067 76.0135 463.52 76.0135 466.848V486.688C76.0135 490.016 76.8028 492.491 78.3815 494.112C80.0028 495.691 82.2428 496.48 85.1015 496.48C87.9602 496.48 90.2002 495.691 91.8215 494.112C93.4428 492.491 94.2535 490.016 94.2535 486.688V479.072H85.6775C85.1655 479.072 84.7602 478.88 84.4615 478.496C84.2055 478.112 84.0775 477.685 84.0775 477.216C84.0775 476.789 84.2055 476.384 84.4615 476C84.7602 475.616 85.1655 475.424 85.6775 475.424H96.8775C97.3895 475.424 97.7735 475.595 98.0295 475.936C98.3282 476.277 98.4775 476.661 98.4775 477.088V486.688C98.4775 490.016 97.8802 492.683 96.6855 494.688C95.4908 496.693 93.8908 498.144 91.8855 499.04C89.8802 499.936 87.6188 500.384 85.1015 500.384ZM109.101 500C108.546 500 108.056 499.872 107.629 499.616C107.202 499.317 106.989 498.912 106.989 498.4V454.752C106.989 454.24 107.202 453.856 107.629 453.6C108.056 453.344 108.546 453.216 109.101 453.216C109.613 453.216 110.082 453.344 110.509 453.6C110.978 453.856 111.213 454.24 111.213 454.752V473.888H129.709V454.752C129.709 454.24 129.922 453.856 130.349 453.6C130.776 453.344 131.266 453.216 131.821 453.216C132.333 453.216 132.802 453.344 133.229 453.6C133.698 453.856 133.933 454.24 133.933 454.752V498.4C133.933 498.912 133.698 499.317 133.229 499.616C132.802 499.872 132.333 500 131.821 500C131.266 500 130.776 499.872 130.349 499.616C129.922 499.317 129.709 498.912 129.709 498.4V477.536H111.213V498.4C111.213 498.912 110.978 499.317 110.509 499.616C110.082 499.872 109.613 500 109.101 500ZM154.108 500C153.554 500 153.063 499.872 152.636 499.616C152.21 499.317 151.996 498.912 151.996 498.4V457.184H141.244C140.732 457.184 140.327 456.992 140.028 456.608C139.772 456.181 139.644 455.712 139.644 455.2C139.644 454.688 139.772 454.24 140.028 453.856C140.284 453.429 140.69 453.216 141.244 453.216H166.908C167.463 453.216 167.868 453.429 168.124 453.856C168.38 454.24 168.508 454.667 168.508 455.136C168.508 455.648 168.38 456.117 168.124 456.544C167.868 456.971 167.463 457.184 166.908 457.184H156.22V498.4C156.22 498.912 155.986 499.317 155.516 499.616C155.09 499.872 154.62 500 154.108 500ZM186.208 500C185.696 500 185.206 499.872 184.736 499.616C184.31 499.317 184.096 498.912 184.096 498.4V482.08C184.096 481.909 184.075 481.739 184.032 481.568L170.784 456.16C170.571 455.733 170.464 455.349 170.464 455.008C170.464 454.453 170.72 454.027 171.232 453.728C171.744 453.387 172.256 453.216 172.768 453.216C173.408 453.216 173.963 453.643 174.432 454.496L186.208 477.856L198.048 454.496C198.475 453.643 199.03 453.216 199.712 453.216C200.224 453.216 200.736 453.387 201.248 453.728C201.76 454.027 202.016 454.453 202.016 455.008C202.016 455.136 201.995 455.307 201.952 455.52C201.91 455.691 201.846 455.904 201.76 456.16L188.448 481.568C188.363 481.739 188.32 481.909 188.32 482.08V498.4C188.32 498.912 188.107 499.317 187.68 499.616C187.254 499.872 186.763 500 186.208 500ZM218.483 500C217.929 500 217.438 499.872 217.011 499.616C216.585 499.317 216.371 498.912 216.371 498.4V457.184H205.619C205.107 457.184 204.702 456.992 204.403 456.608C204.147 456.181 204.019 455.712 204.019 455.2C204.019 454.688 204.147 454.24 204.403 453.856C204.659 453.429 205.065 453.216 205.619 453.216H231.283C231.838 453.216 232.243 453.429 232.499 453.856C232.755 454.24 232.883 454.667 232.883 455.136C232.883 455.648 232.755 456.117 232.499 456.544C232.243 456.971 231.838 457.184 231.283 457.184H220.595V498.4C220.595 498.912 220.361 499.317 219.891 499.616C219.465 499.872 218.995 500 218.483 500ZM240.663 500C240.109 500 239.618 499.872 239.191 499.616C238.765 499.317 238.551 498.912 238.551 498.4V454.752C238.551 454.24 238.765 453.856 239.191 453.6C239.618 453.344 240.109 453.216 240.663 453.216C241.175 453.216 241.645 453.344 242.071 453.6C242.541 453.856 242.775 454.24 242.775 454.752V473.888H261.271V454.752C261.271 454.24 261.485 453.856 261.911 453.6C262.338 453.344 262.829 453.216 263.383 453.216C263.895 453.216 264.365 453.344 264.791 453.6C265.261 453.856 265.495 454.24 265.495 454.752V498.4C265.495 498.912 265.261 499.317 264.791 499.616C264.365 499.872 263.895 500 263.383 500C262.829 500 262.338 499.872 261.911 499.616C261.485 499.317 261.271 498.912 261.271 498.4V477.536H242.775V498.4C242.775 498.912 242.541 499.317 242.071 499.616C241.645 499.872 241.175 500 240.663 500ZM299.687 500.064C299.175 500.064 298.748 499.829 298.407 499.36C298.066 498.891 297.767 498.4 297.511 497.888L287.591 478.688H279.463V498.4C279.463 498.912 279.228 499.317 278.759 499.616C278.332 499.872 277.863 500 277.351 500C276.796 500 276.306 499.872 275.879 499.616C275.452 499.317 275.239 498.912 275.239 498.4V454.752C275.239 454.368 275.388 454.027 275.687 453.728C275.986 453.429 276.37 453.259 276.839 453.216H288.167C290.684 453.216 292.988 453.6 295.079 454.368C297.17 455.136 298.834 456.437 300.071 458.272C301.351 460.107 301.991 462.624 301.991 465.824C301.991 468.469 301.543 470.645 300.647 472.352C299.751 474.059 298.556 475.381 297.063 476.32C295.57 477.216 293.884 477.835 292.007 478.176L301.863 497.12C302.034 497.376 302.119 497.653 302.119 497.952C302.119 498.507 301.863 498.997 301.351 499.424C300.839 499.851 300.284 500.064 299.687 500.064ZM279.463 475.04H288.167C291.026 475.04 293.33 474.357 295.079 472.992C296.871 471.584 297.767 469.259 297.767 466.016C297.767 462.816 296.871 460.533 295.079 459.168C293.33 457.803 291.026 457.12 288.167 457.12H279.463V475.04ZM310.971 500C310.502 500 310.054 499.872 309.627 499.616C309.243 499.317 309.051 498.912 309.051 498.4V454.816C309.051 454.304 309.243 453.92 309.627 453.664C310.054 453.365 310.502 453.216 310.971 453.216H333.755C334.31 453.216 334.715 453.429 334.971 453.856C335.227 454.24 335.355 454.645 335.355 455.072C335.355 455.627 335.206 456.117 334.907 456.544C334.651 456.928 334.267 457.12 333.755 457.12H313.275V474.72H323.323C323.835 474.72 324.219 474.912 324.475 475.296C324.774 475.68 324.923 476.128 324.923 476.64C324.923 477.067 324.795 477.472 324.539 477.856C324.283 478.197 323.878 478.368 323.323 478.368H313.275V496.096H333.755C334.267 496.096 334.651 496.309 334.907 496.736C335.206 497.12 335.355 497.589 335.355 498.144C335.355 498.571 335.227 498.997 334.971 499.424C334.715 499.808 334.31 500 333.755 500H310.971ZM343.471 500C343.002 500 342.554 499.872 342.127 499.616C341.743 499.317 341.551 498.912 341.551 498.4V454.816C341.551 454.304 341.743 453.92 342.127 453.664C342.554 453.365 343.002 453.216 343.471 453.216H366.255C366.81 453.216 367.215 453.429 367.471 453.856C367.727 454.24 367.855 454.645 367.855 455.072C367.855 455.627 367.706 456.117 367.407 456.544C367.151 456.928 366.767 457.12 366.255 457.12H345.775V474.72H355.823C356.335 474.72 356.719 474.912 356.975 475.296C357.274 475.68 357.423 476.128 357.423 476.64C357.423 477.067 357.295 477.472 357.039 477.856C356.783 478.197 356.378 478.368 355.823 478.368H345.775V496.096H366.255C366.767 496.096 367.151 496.309 367.407 496.736C367.706 497.12 367.855 497.589 367.855 498.144C367.855 498.571 367.727 498.997 367.471 499.424C367.215 499.808 366.81 500 366.255 500H343.471Z" fill="black"/>
</svg>
